<?xml version="1.0" standalone="no"?>
<!DOCTYPE svg PUBLIC "-//W3C//DTD SVG 20010904//EN"
 "http://www.w3.org/TR/2001/REC-SVG-20010904/DTD/svg10.dtd">
<svg version="1.0" xmlns="http://www.w3.org/2000/svg"
 width="346.000000pt" height="346.000000pt" viewBox="0 0 346.000000 346.000000"
 preserveAspectRatio="xMidYMid meet">

<g transform="translate(0.000000,346.000000) scale(0.100000,-0.100000)"
fill="#000000" stroke="none">
<path d="M2500 3452 c0 -13 24 -39 41 -45 15 -5 89 36 89 48 0 3 -29 5 -65 5
-36 0 -65 -4 -65 -8z"/>
<path d="M1565 3060 c-3 -5 -1 -10 4 -10 6 0 11 5 11 10 0 6 -2 10 -4 10 -3 0
-8 -4 -11 -10z"/>
<path d="M1604 3052 c0 -11 4 -19 8 -16 6 4 54 -71 86 -136 7 -14 24 -45 38
-69 14 -24 20 -40 13 -36 -9 6 -10 1 -4 -21 4 -16 7 -37 7 -48 -1 -10 8 -20
19 -23 20 -6 27 -23 8 -23 -23 0 -48 21 -43 35 5 11 2 13 -12 8 -12 -4 -15 -3
-10 6 5 7 15 10 23 7 8 -4 11 -1 8 5 -4 6 -13 8 -21 5 -8 -3 -19 4 -25 16 -10
18 -9 20 5 15 10 -4 16 -1 16 8 0 18 -17 28 -25 15 -4 -6 -19 5 -36 26 -32 40
-33 43 -20 63 9 14 -10 61 -34 81 -8 7 -15 20 -16 29 0 10 -2 11 -6 4 -2 -7
-12 -13 -20 -13 -14 0 -14 3 2 20 16 17 16 20 2 20 -8 0 -17 6 -19 12 -3 8
-11 2 -21 -13 -14 -20 -15 -31 -7 -50 l11 -24 -5 23 c-5 26 2 52 13 52 4 0 7
-19 8 -41 2 -31 -7 -57 -35 -105 -20 -35 -40 -64 -44 -64 -4 0 -8 -8 -9 -17 0
-15 -2 -15 -9 2 -5 11 -9 16 -9 12 -1 -4 -10 -3 -20 2 -23 13 -33 -5 -24 -40
5 -18 3 -21 -10 -16 -16 6 -29 -6 -40 -36 -4 -11 -3 -16 3 -12 6 3 10 13 10
21 0 8 7 14 16 14 8 0 12 -4 9 -10 -3 -5 -1 -10 5 -10 6 0 16 11 22 25 6 14
17 25 25 25 9 0 4 -13 -14 -41 -15 -23 -29 -36 -31 -30 -5 16 -22 13 -22 -4 0
-8 4 -15 9 -15 5 0 4 -11 -2 -24 -8 -16 -14 -20 -19 -13 -4 6 -2 15 5 19 6 4
8 10 4 14 -4 4 -14 -1 -21 -12 -8 -10 -18 -15 -22 -11 -5 4 -2 12 5 16 7 5 9
11 4 14 -5 3 -17 -8 -27 -25 -16 -25 -16 -34 -6 -54 7 -13 17 -21 22 -18 13 8
9 24 -7 24 -20 0 -8 27 16 33 12 3 19 0 19 -10 0 -8 -4 -11 -10 -8 -5 3 -10 1
-10 -4 0 -6 4 -11 10 -11 6 0 5 -9 -1 -24 -11 -23 -30 -28 -45 -13 -17 17 -23
5 -9 -17 15 -23 11 -56 -7 -56 -5 0 -6 -5 -2 -12 4 -7 3 -8 -4 -4 -8 4 -12 0
-12 -11 0 -25 -29 -65 -44 -60 -6 2 -19 1 -28 -2 -13 -4 -15 -10 -8 -21 9 -13
11 -13 19 0 6 8 13 11 17 7 4 -4 0 -15 -9 -25 -10 -10 -17 -23 -17 -28 -1 -5
-12 -22 -25 -39 -21 -25 -23 -26 -18 -7 8 31 -9 27 -24 -5 -10 -21 -10 -28 -1
-34 9 -6 4 -19 -18 -46 -16 -21 -38 -51 -49 -68 -10 -16 -23 -35 -29 -42 -6
-6 -24 -30 -40 -52 -17 -23 -33 -41 -38 -41 -4 0 -8 -6 -8 -12 -1 -16 -35 -58
-48 -58 -15 0 -45 37 -32 42 6 2 13 12 15 23 2 11 4 22 5 25 0 3 5 -3 11 -12
5 -10 17 -18 26 -18 13 0 14 3 5 12 -17 17 -15 47 3 54 8 4 15 12 15 20 0 8 7
14 15 14 19 0 19 -2 -5 -30 -21 -24 -26 -40 -12 -40 11 0 41 37 35 43 -2 3 4
8 14 11 26 8 48 45 34 59 -14 14 -14 27 -1 27 6 0 10 -7 10 -16 0 -8 5 -12 10
-9 6 4 8 10 5 15 -3 5 -1 11 5 15 16 10 12 35 -6 35 -11 0 -14 -6 -9 -20 5
-15 3 -19 -10 -14 -11 5 -18 0 -22 -15 -3 -11 -9 -21 -14 -21 -5 0 -9 -7 -9
-16 0 -8 5 -12 10 -9 6 3 10 1 10 -4 0 -13 -10 -14 -29 -2 -10 7 -5 20 27 64
54 72 87 107 101 107 15 0 14 20 -1 21 -7 0 -4 4 7 9 11 5 14 9 7 9 -12 1 -5
19 26 70 1 2 5 2 8 -1 3 -4 -2 -18 -12 -32 -20 -32 -13 -44 12 -19 17 17 18
17 10 -2 -5 -13 -4 -17 3 -10 6 6 7 24 2 46 -6 26 -4 43 6 60 9 15 12 17 8 5
-5 -17 -4 -17 12 -5 24 19 42 43 37 49 -3 2 -9 -2 -14 -10 -5 -8 -12 -12 -15
-8 -4 3 7 29 23 57 16 28 32 48 35 44 4 -3 7 1 7 10 0 9 8 17 18 18 10 0 12 3
4 6 -6 2 -10 9 -6 14 3 5 -21 9 -55 9 l-61 0 0 69 c0 52 4 70 15 75 20 7 20
79 1 95 -11 10 -16 9 -23 -4 -9 -15 -11 -15 -22 -1 -8 9 -29 16 -47 16 l-34 0
0 -55 0 -55 -106 0 c-95 0 -105 -2 -102 -17 2 -14 14 -18 46 -19 26 0 47 -6
53 -15 7 -12 9 -11 9 3 0 14 9 17 45 16 l45 -1 -2 -156 -3 -156 -108 0 c-67 0
-106 -4 -103 -10 1 -5 15 -9 29 -7 14 1 28 -2 32 -8 5 -8 11 -7 21 1 8 6 17 9
20 6 8 -8 -28 -47 -38 -40 -5 3 -8 -3 -6 -13 3 -15 -4 -18 -42 -17 -25 0 -33
-1 -17 -4 15 -2 27 -9 27 -14 0 -5 -12 -7 -27 -3 -22 4 -25 3 -13 -5 26 -18
-3 -11 -40 10 -21 12 -26 17 -12 14 26 -7 28 3 7 31 -13 16 -14 16 -9 2 4 -13
1 -18 -13 -18 -11 0 -25 -11 -31 -25 -14 -30 -16 -46 -3 -26 13 20 33 4 22
-17 -8 -15 -3 -17 40 -18 27 -1 49 2 49 8 0 5 4 6 10 3 20 -12 -14 -30 -54
-28 -23 1 -31 -1 -19 -3 24 -6 49 -31 40 -40 -3 -3 -20 1 -38 10 -41 20 -42
20 -34 -4 3 -11 3 -20 -2 -21 -4 0 -21 -2 -36 -4 -24 -3 -26 -1 -16 11 7 8 7
14 1 14 -9 0 -22 -22 -22 -37 0 -3 18 -3 40 0 22 3 43 1 46 -4 3 -5 -17 -9
-45 -9 -27 0 -53 5 -57 11 -3 6 8 32 26 57 31 46 9 26 -37 -33 -17 -22 -19
-31 -10 -46 6 -10 14 -16 18 -13 17 10 14 -24 -4 -51 -10 -16 -16 -21 -12 -10
11 34 11 39 -4 40 -8 0 -16 6 -19 14 -3 9 0 11 8 6 9 -5 11 -4 6 3 -4 7 -8 12
-10 12 -1 0 -24 -29 -50 -65 -39 -53 -45 -68 -37 -84 8 -15 7 -20 -5 -25 -23
-9 -24 -8 -17 12 4 11 0 10 -11 -6 -19 -25 -15 -51 14 -77 17 -16 43 -17 257
-16 130 1 239 3 241 5 2 2 7 28 11 58 7 52 30 87 178 283 19 25 116 180 176
280 96 164 185 307 202 330 16 20 17 19 44 -14 26 -31 261 -401 269 -423 15
-38 250 -360 344 -470 l41 -49 328 3 c305 3 328 4 348 22 41 37 29 64 -81 177
-128 131 -257 272 -297 324 -17 22 -34 45 -39 50 -4 6 -57 84 -117 175 -97
149 -126 193 -218 337 -43 67 -52 70 -242 77 -93 3 -206 9 -250 12 -77 6 -81
5 -81 -14z m-2 -102 c7 -16 16 -30 20 -30 5 0 8 -7 8 -15 0 -8 -3 -15 -7 -15
-12 1 -55 90 -44 90 5 0 15 -13 23 -30z m-525 -122 c-3 -7 -5 -2 -5 12 0 14 2
19 5 13 2 -7 2 -19 0 -25z m100 -15 c-3 -10 -5 -4 -5 12 0 17 2 24 5 18 2 -7
2 -21 0 -30z m-57 17 c0 -5 -5 -10 -11 -10 -5 0 -7 5 -4 10 3 6 8 10 11 10 2
0 4 -4 4 -10z m33 -5 c4 -8 2 -17 -3 -20 -6 -4 -10 3 -10 14 0 25 6 27 13 6z
m277 -25 c0 -5 -7 -10 -15 -10 -8 0 -15 5 -15 10 0 6 7 10 15 10 8 0 15 -4 15
-10z m385 -98 c-7 -7 -45 19 -40 28 3 5 1 11 -5 15 -5 3 -10 12 -10 18 0 7 13
-4 30 -23 16 -19 27 -36 25 -38z m15 -42 c16 0 70 -81 70 -105 0 -8 6 -15 14
-15 12 0 27 -23 27 -40 0 -3 10 -15 21 -27 12 -13 19 -26 15 -29 -3 -3 -18 6
-32 22 -17 18 -23 22 -19 9 5 -13 4 -16 -4 -11 -17 10 -15 -1 5 -35 18 -30 28
-35 38 -20 3 5 -4 12 -15 16 -20 7 -28 25 -10 25 6 0 10 -4 10 -9 0 -5 11 -12
25 -15 14 -4 25 -12 25 -20 0 -7 9 -21 20 -31 11 -10 20 -27 20 -37 0 -11 4
-16 10 -13 6 3 7 -1 4 -9 -4 -10 -1 -16 9 -16 9 0 25 -12 36 -27 12 -16 25
-33 31 -40 5 -7 10 -16 10 -20 -1 -4 -10 3 -20 16 -15 18 -23 21 -33 12 -8 -6
-17 -8 -20 -4 -4 3 -7 1 -7 -5 0 -11 14 -16 33 -13 4 1 7 -4 6 -11 -3 -25 1
-38 12 -38 6 0 9 7 5 15 -11 31 12 14 28 -20 9 -19 22 -38 29 -42 7 -4 21 -19
29 -32 14 -20 15 -26 3 -37 -18 -18 -25 -18 -25 1 0 8 5 15 10 15 17 0 11 14
-11 28 -19 12 -20 12 -13 -10 6 -20 5 -21 -9 -10 -9 8 -13 20 -10 28 3 8 -1
14 -11 14 -8 0 -21 10 -27 22 -7 13 -19 29 -26 37 -25 24 -45 60 -40 69 3 4 1
14 -5 22 -8 12 -9 12 -4 -2 9 -29 -12 -20 -29 11 -8 16 -22 36 -30 45 -10 10
-12 16 -5 16 8 0 10 9 6 24 -4 15 -1 26 7 29 6 2 9 8 5 12 -12 13 -28 -6 -28
-33 0 -27 0 -27 -22 8 -12 19 -27 38 -33 42 -6 5 -6 8 0 8 6 0 4 4 -3 9 -8 5
-15 20 -15 35 -1 16 -7 24 -14 21 -7 -2 -13 2 -13 10 0 8 4 15 8 15 16 0 30
-23 25 -39 -4 -13 -3 -14 5 -1 6 8 8 18 5 24 -4 5 1 7 10 3 28 -10 19 1 -12
18 -17 8 -37 12 -45 9 -24 -9 -19 11 7 29 16 12 18 16 7 16 -9 1 -21 -4 -28
-11 -21 -21 -22 -2 -1 20 11 12 17 27 14 32 -8 13 -35 1 -35 -16 0 -16 -27 9
-47 44 -10 17 -10 21 5 25 9 2 21 0 27 -5 5 -4 16 -8 25 -8z m-735 -79 c-3 -6
-11 -11 -16 -11 -5 0 -4 6 3 14 14 16 24 13 13 -3z m-135 -216 c-7 -9 -15 -13
-18 -10 -3 2 1 11 8 20 7 9 15 13 18 10 3 -2 -1 -11 -8 -20z m27 -21 c-3 -3
-12 -4 -19 -1 -8 3 -5 6 6 6 11 1 17 -2 13 -5z m-27 -14 c8 -5 11 -10 5 -10
-5 0 -17 5 -25 10 -8 5 -10 10 -5 10 6 0 17 -5 25 -10z m-195 -50 c3 -5 1 -10
-4 -10 -6 0 -11 5 -11 10 0 6 2 10 4 10 3 0 8 -4 11 -10z m135 -10 c0 -5 -7
-10 -16 -10 -8 0 -12 5 -9 10 3 6 10 10 16 10 5 0 9 -4 9 -10z m20 -34 c0 -3
-4 -8 -10 -11 -5 -3 -10 -1 -10 4 0 6 5 11 10 11 6 0 10 -2 10 -4z m1269 -77
c18 -22 30 -43 27 -47 -7 -7 -64 59 -58 67 2 2 -2 8 -10 12 -7 5 -8 9 -3 9 6
0 25 -19 44 -41z m-1598 -103 c-1 -5 4 -13 11 -18 10 -7 10 -9 -2 -5 -8 2 -16
13 -18 25 -2 12 -8 20 -13 16 -5 -3 -7 -9 -5 -13 3 -4 -1 -8 -9 -8 -11 0 -11
6 2 31 l16 31 10 -25 c6 -14 9 -29 8 -34z m104 44 c3 -6 -1 -7 -9 -4 -18 7
-21 14 -7 14 6 0 13 -4 16 -10z m1557 -19 c11 -11 18 -25 16 -32 -2 -7 -13 0
-27 19 -25 36 -21 42 11 13z m-1487 -21 c-3 -5 -15 -10 -25 -10 -14 0 -18 -5
-14 -17 5 -15 4 -16 -5 -3 -7 10 -11 11 -11 3 0 -7 -5 -13 -10 -13 -6 0 -3 11
6 25 15 24 73 38 59 15z m-211 -31 c-3 -6 0 -15 7 -20 11 -7 10 -9 -3 -9 -18
0 -24 20 -11 33 10 11 15 8 7 -4z m202 -15 c-11 -8 -25 -14 -30 -13 -6 0 -1 5
12 11 12 6 22 16 22 21 0 6 3 7 7 3 5 -4 -1 -14 -11 -22z m1489 8 c-10 -11
-35 -10 -42 0 -3 6 -1 8 5 4 6 -3 13 -2 17 4 4 6 11 8 16 4 6 -3 8 -9 4 -12z
m85 -41 c0 -4 -9 -16 -20 -26 -21 -19 -29 -8 -9 12 8 8 8 17 -1 33 -9 17 -14
19 -26 9 -17 -14 -18 -36 -1 -42 6 -2 9 -8 5 -12 -5 -5 -17 0 -28 10 -20 18
-20 18 8 45 l27 28 23 -25 c12 -13 22 -28 22 -32z m-1800 39 c0 -5 -2 -10 -4
-10 -3 0 -8 5 -11 10 -3 6 -1 10 4 10 6 0 11 -4 11 -10z m100 -16 c0 -2 -8 -8
-18 -13 -14 -7 -18 -6 -18 8 0 12 6 17 18 13 10 -2 18 -6 18 -8z m80 -14 c0
-11 -4 -20 -10 -20 -5 0 -7 7 -4 15 4 8 2 15 -4 15 -6 0 -13 -6 -15 -12 -3 -8
-6 -6 -6 5 -1 11 6 17 19 17 13 0 20 -7 20 -20z m87 4 c-3 -3 -12 -4 -19 -1
-8 3 -5 6 6 6 11 1 17 -2 13 -5z m-257 -19 c0 -8 -7 -15 -16 -15 -14 0 -14 3
-4 15 7 8 14 15 16 15 2 0 4 -7 4 -15z m214 0 c-6 -16 -24 -21 -24 -7 0 11 11
22 21 22 5 0 6 -7 3 -15z m1546 5 c0 -5 -4 -10 -10 -10 -5 0 -10 5 -10 10 0 6
5 10 10 10 6 0 10 -4 10 -10z"/>
<path d="M1790 2650 c0 -5 5 -10 10 -10 6 0 10 5 10 10 0 6 -4 10 -10 10 -5 0
-10 -4 -10 -10z"/>
<path d="M1995 2371 c4 -13 8 -30 9 -37 4 -28 16 -26 16 3 0 17 -7 37 -16 44
-15 12 -16 11 -9 -10z"/>
<path d="M2062 2269 c2 -7 10 -15 17 -17 8 -3 12 1 9 9 -2 7 -10 15 -17 17 -8
3 -12 -1 -9 -9z"/>
<path d="M2120 2150 c0 -5 5 -10 11 -10 5 0 7 5 4 10 -3 6 -8 10 -11 10 -2 0
-4 -4 -4 -10z"/>
<path d="M1640 2963 c0 -18 22 -63 31 -63 10 0 1 27 -18 55 -7 11 -13 14 -13
8z"/>
<path d="M1504 2933 c4 -12 2 -24 -4 -28 -5 -3 -10 -14 -10 -23 0 -10 8 -3 17
16 13 27 14 35 3 45 -10 10 -11 8 -6 -10z"/>
<path d="M1461 2921 c-13 -24 -14 -34 -2 -27 5 4 7 -3 4 -14 -3 -12 0 -20 7
-20 9 0 11 10 6 30 -3 19 -2 29 4 25 6 -3 10 -2 10 4 0 20 -19 21 -29 2z"/>
<path d="M1677 2871 c3 -12 9 -21 14 -21 14 0 11 16 -5 29 -12 10 -13 8 -9 -8z"/>
<path d="M1423 2861 c-10 -16 -9 -20 13 -24 19 -3 24 -1 20 10 -3 8 -6 19 -6
24 0 15 -15 10 -27 -10z"/>
<path d="M1710 2825 c7 -9 15 -13 17 -11 7 7 -7 26 -19 26 -6 0 -6 -6 2 -15z"/>
<path d="M1551 2548 c-30 -11 -61 -46 -61 -68 0 -9 -3 -20 -7 -24 -8 -7 -8
-17 -11 -157 l-2 -96 -25 5 c-13 2 -36 1 -50 -2 -19 -5 -25 -13 -25 -35 0 -39
11 -41 218 -41 l172 0 0 34 c0 35 -15 46 -68 46 -22 0 -23 2 -21 93 1 92 -21
208 -45 233 -17 16 -49 22 -75 12z m84 -255 c-3 -15 -10 -20 -20 -17 -8 4 -12
10 -9 15 3 6 0 16 -6 24 -14 17 -21 85 -9 85 5 0 9 -9 9 -20 0 -11 4 -20 8
-20 5 0 7 15 5 33 -2 19 3 11 12 -23 9 -30 13 -65 10 -77z m-77 65 c-2 -21 -9
-32 -20 -34 -21 -3 -22 3 -5 39 16 36 29 34 25 -5z"/>
<path d="M1244 2518 c3 -13 3 -17 0 -10 -3 6 -10 9 -15 6 -6 -3 -5 -12 2 -21
10 -12 10 -19 0 -36 -12 -20 -12 -20 2 -7 20 20 34 90 17 90 -7 0 -9 -9 -6
-22z"/>
<path d="M775 2380 c3 -5 8 -10 11 -10 2 0 4 5 4 10 0 6 -5 10 -11 10 -5 0 -7
-4 -4 -10z"/>
<path d="M828 2353 c7 -3 16 -2 19 1 4 3 -2 6 -13 5 -11 0 -14 -3 -6 -6z"/>
<path d="M1090 2271 c0 -6 4 -13 10 -16 6 -3 7 1 4 9 -7 18 -14 21 -14 7z"/>
<path d="M1070 2246 c0 -8 5 -18 10 -21 6 -3 10 1 10 9 0 8 -4 18 -10 21 -5 3
-10 -1 -10 -9z"/>
<path d="M877 1995 c-3 -6 -2 -17 2 -24 5 -8 12 -6 25 7 16 18 16 20 -3 25
-11 2 -22 -1 -24 -8z"/>
<path d="M1142 1958 c-18 -18 -15 -28 8 -28 11 0 20 5 20 11 0 5 5 7 12 3 7
-4 8 -3 4 5 -4 6 -11 9 -16 6 -4 -3 -10 0 -12 5 -2 7 -8 6 -16 -2z"/>
<path d="M1281 1930 c-1 -14 -4 -20 -9 -14 -5 8 -13 5 -27 -8 -20 -19 -20 -19
0 -13 43 14 65 29 65 44 0 13 -2 13 -9 2 -7 -11 -9 -11 -14 0 -3 8 -6 3 -6
-11z"/>
<path d="M1160 1920 c-8 -5 -11 -12 -7 -16 4 -4 13 -2 19 4 6 6 10 14 7 16 -2
3 -11 1 -19 -4z"/>
<path d="M1205 1917 c-13 -10 -15 -16 -6 -21 7 -5 15 -5 18 -2 4 3 0 6 -8 6
-8 1 0 7 16 15 17 7 23 14 14 14 -8 1 -23 -5 -34 -12z"/>
<path d="M1569 1850 c-43 -22 -85 -70 -108 -120 -14 -30 -16 -81 -16 -338 1
-226 4 -305 13 -311 7 -4 95 -6 197 -4 l185 3 0 -51 0 -50 78 3 c71 3 77 5 78
25 1 12 4 28 7 37 4 9 2 16 -4 16 -6 0 -7 5 -4 10 3 6 -1 13 -9 16 -17 7 -18
54 -1 66 6 5 3 8 -7 8 -14 0 -18 -8 -18 -38 0 -37 -1 -38 -39 -40 l-40 -3 -3
318 -3 318 -25 44 c-14 24 -42 58 -63 75 -34 27 -47 31 -110 33 -56 3 -80 -1
-108 -17z"/>
<path d="M1136 1814 c-8 -22 -8 -72 2 -77 4 -3 7 17 7 44 0 27 -1 49 -1 49 -1
0 -5 -7 -8 -16z"/>
<path d="M1225 1767 c4 -18 0 -33 -10 -43 -8 -9 -15 -23 -15 -32 1 -12 6 -8
16 10 13 25 17 26 39 16 20 -9 28 -9 38 1 9 10 9 11 -3 7 -19 -7 -46 14 -60
45 -10 23 -10 23 -5 -4z"/>
<path d="M2055 1760 c-16 -16 -26 -33 -22 -36 4 -4 9 1 13 10 3 9 10 16 15 16
4 0 5 -8 2 -17 -7 -17 -6 -17 11 0 21 21 30 22 22 2 -3 -8 -1 -15 4 -15 6 0
10 -20 10 -45 l0 -45 -42 0 c-23 0 -39 -2 -37 -4 4 -4 44 -12 72 -15 4 -1 7
-31 5 -68 l-3 -68 -35 -2 c-55 -5 -65 -10 -49 -29 9 -12 29 -15 83 -13 88 3
106 7 106 26 0 10 -7 14 -20 10 -12 -3 -18 -1 -14 5 4 5 -4 8 -17 6 -23 -3
-24 -1 -24 67 l0 70 33 -1 c17 -1 32 2 32 7 0 5 -16 9 -35 9 l-35 0 0 49 c0
28 5 53 10 56 6 3 10 2 10 -3 0 -5 11 -9 25 -9 22 0 24 2 13 16 -47 61 -88 68
-133 21z"/>
<path d="M2656 1764 c-5 -14 -4 -15 9 -4 17 14 19 20 6 20 -5 0 -12 -7 -15
-16z"/>
<path d="M1267 1749 c7 -7 15 -10 18 -7 3 3 -2 9 -12 12 -14 6 -15 5 -6 -5z"/>
<path d="M2449 1747 c0 -1 -1 -32 -2 -70 l-2 -67 37 0 36 0 4 65 c3 59 1 65
-17 66 -11 0 -28 2 -37 4 -10 2 -18 3 -19 2z"/>
<path d="M2555 1742 c-3 -3 -5 -34 -5 -69 l0 -63 34 0 c48 0 66 9 66 32 0 11
-4 16 -11 12 -8 -4 -9 3 -4 25 10 49 0 66 -40 67 -19 0 -37 -2 -40 -4z"/>
<path d="M760 1675 l0 -65 55 0 55 0 0 65 0 65 -55 0 -55 0 0 -65z"/>
<path d="M904 1709 c3 -17 6 -47 6 -65 l0 -34 50 0 50 0 0 65 0 65 -56 0 -56
0 6 -31z"/>
<path d="M2663 1660 c0 -25 2 -35 4 -22 2 12 2 32 0 45 -2 12 -4 2 -4 -23z"/>
<path d="M2633 1597 c1 -7 -14 -13 -40 -15 l-43 -3 0 -80 c0 -62 -3 -79 -14
-79 -8 0 -17 -8 -19 -17 -2 -10 -3 -7 -1 7 2 14 5 57 6 97 l3 71 -56 4 c-41 2
-55 0 -52 -9 3 -6 10 -10 17 -7 9 4 12 -9 9 -48 -4 -75 -6 -88 -14 -88 -4 0
-10 8 -13 18 -2 9 -2 -1 1 -23 3 -22 10 -45 15 -52 12 -16 246 -17 264 -2 18
15 18 45 -1 53 -8 3 -18 25 -22 48 -6 38 -8 40 -14 18 -6 -21 -7 -20 -8 13 -1
21 3 36 7 33 4 -2 8 4 8 15 0 10 -7 19 -16 19 -12 1 -12 3 3 14 22 17 22 21
-3 23 -11 1 -19 -4 -17 -10z m-163 -187 c0 -5 -4 -10 -10 -10 -5 0 -10 5 -10
10 0 6 5 10 10 10 6 0 10 -4 10 -10z m4 -28 c3 -5 -1 -9 -9 -9 -8 0 -12 4 -9
9 3 4 7 8 9 8 2 0 6 -4 9 -8z"/>
<path d="M2910 1593 c0 -14 -2 -15 -9 -5 -9 14 -33 -41 -50 -113 -5 -22 -9
-32 -10 -21 -2 46 -25 96 -42 96 -25 0 -33 -37 -25 -118 17 -180 18 -212 10
-212 -5 0 -18 19 -29 43 -37 78 -91 54 -79 -35 4 -30 3 -48 -4 -48 -5 0 -12 7
-16 15 -3 8 -13 15 -22 15 -10 0 -14 -5 -10 -15 3 -8 1 -15 -3 -15 -5 0 -12 6
-14 13 -3 7 -6 5 -6 -5 -1 -12 -9 -18 -23 -18 -19 0 -20 -2 -8 -11 12 -9 11
-9 -5 -4 -31 12 -86 15 -80 6 2 -5 -3 -15 -13 -22 -15 -12 -16 -12 -6 1 16 23
2 64 -24 68 -12 2 -22 8 -22 14 0 6 -10 8 -21 5 -17 -5 -24 1 -32 24 -13 33
-23 37 -31 12 -3 -10 -3 7 0 39 3 34 1 59 -5 63 -10 6 -14 -33 -15 -132 0 -31
-14 -29 -22 2 -3 13 -13 30 -22 37 -12 10 -12 6 3 -22 21 -41 31 -125 12 -100
-7 8 -21 15 -32 15 -16 0 -19 -6 -17 -28 2 -19 -1 -27 -10 -25 -7 2 -13 -1
-13 -7 1 -20 27 -100 36 -112 14 -16 179 -17 179 0 0 9 3 8 9 -2 7 -10 12 -8
24 9 11 15 16 18 20 8 4 -10 9 -8 17 6 12 17 13 17 24 -5 11 -24 14 -24 191
-27 223 -4 240 -1 254 39 13 38 0 66 -34 75 -32 8 -31 10 5 44 36 34 38 57 6
71 -20 10 -30 8 -55 -10 -17 -12 -39 -24 -50 -26 -19 -4 -19 -3 0 29 10 18 37
47 59 66 33 27 38 38 33 58 -4 17 -2 23 6 18 6 -4 11 -2 11 3 0 6 4 11 10 11
5 0 7 -8 4 -17 -2 -10 3 -3 13 15 15 28 15 34 2 47 -9 10 -19 11 -29 5 -13 -8
-13 -10 1 -10 9 0 19 -6 22 -13 3 -9 -7 -13 -34 -13 -34 -1 -36 1 -21 13 13
11 13 13 2 10 -8 -2 -20 -14 -26 -26 -9 -17 -13 -19 -17 -8 -3 9 12 50 34 93
39 79 50 115 25 81 -12 -16 -14 -16 -20 -2 -4 10 -2 14 5 9 8 -4 9 1 4 15 -4
13 -1 28 5 36 10 12 9 15 -4 15 -9 0 -16 -8 -16 -17z m-15 -312 c-3 -6 -11
-11 -17 -11 -6 0 -6 6 2 15 14 17 26 13 15 -4z m-616 -159 c0 -14 -2 -13 -9 3
-8 19 -9 19 -9 1 -1 -11 -4 -17 -7 -13 -4 3 -4 13 0 22 7 20 26 10 25 -13z
m654 -47 c4 -8 1 -17 -5 -21 -7 -4 -8 -3 -4 5 4 7 -2 15 -16 20 -22 9 -22 10
-2 10 12 1 24 -6 27 -14z m27 -35 c0 -5 -5 -10 -11 -10 -5 0 -7 5 -4 10 3 6 8
10 11 10 2 0 4 -4 4 -10z m-10 -24 c0 -3 -4 -8 -10 -11 -5 -3 -10 -1 -10 4 0
6 5 11 10 11 6 0 10 -2 10 -4z"/>
<path d="M2935 1580 c-3 -5 -1 -10 4 -10 6 0 11 5 11 10 0 6 -2 10 -4 10 -3 0
-8 -4 -11 -10z"/>
<path d="M760 1497 c0 -93 -6 -87 88 -86 31 0 42 -4 42 -15 0 -8 5 -18 12 -22
7 -5 9 -1 6 13 -5 19 0 22 48 28 l54 6 0 80 0 79 -55 0 c-30 0 -55 -2 -55 -6
0 -3 13 -19 30 -37 34 -37 35 -40 15 -57 -11 -9 -19 -9 -28 -2 -10 9 -12 4 -9
-23 4 -30 1 -35 -17 -35 -13 0 -21 6 -21 18 0 9 -12 28 -26 41 -26 25 -27 45
-3 47 8 1 19 2 25 3 6 1 9 12 6 26 -4 23 -9 25 -58 25 l-54 0 0 -83z"/>
<path d="M606 1542 c-3 -4 4 -9 15 -9 23 -2 25 3 4 10 -8 4 -16 3 -19 -1z"/>
<path d="M522 1523 c2 -10 14 -19 26 -21 22 -3 23 -3 5 17 -21 26 -36 27 -31
4z"/>
<path d="M1203 1485 c0 -33 2 -45 4 -27 2 18 2 45 0 60 -2 15 -4 0 -4 -33z"/>
<path d="M581 1504 c0 -11 3 -14 6 -6 3 7 2 16 -1 19 -3 4 -6 -2 -5 -13z"/>
<path d="M612 1505 c-11 -12 -10 -15 3 -15 8 0 15 7 15 15 0 18 -2 18 -18 0z"/>
<path d="M870 1510 c0 -5 7 -7 15 -4 8 4 15 8 15 10 0 2 -7 4 -15 4 -8 0 -15
-4 -15 -10z"/>
<path d="M910 1510 c0 -6 4 -9 9 -6 5 4 12 1 14 -4 3 -6 4 -5 3 2 -3 15 -26
23 -26 8z"/>
<path d="M1262 1468 c-7 -7 -12 -17 -12 -22 0 -6 5 -3 11 7 6 9 14 15 20 12 5
-4 9 -1 9 4 0 14 -13 14 -28 -1z"/>
<path d="M887 1450 c3 -11 7 -20 9 -20 2 0 4 9 4 20 0 11 -4 20 -9 20 -5 0 -7
-9 -4 -20z"/>
<path d="M1305 1459 c-4 -6 -5 -12 -2 -15 2 -3 7 2 10 11 7 17 1 20 -8 4z"/>
<path d="M500 1453 c0 -7 7 -18 15 -27 13 -13 13 -15 -3 -19 -9 -2 0 -4 20 -3
21 0 38 5 38 10 0 4 -7 5 -16 2 -12 -5 -14 -1 -9 17 5 17 4 19 -5 7 -9 -13
-12 -12 -25 4 -8 11 -15 15 -15 9z"/>
<path d="M690 1410 c-9 -6 -10 -10 -3 -10 6 0 15 5 18 10 8 12 4 12 -15 0z"/>
<path d="M1260 1409 c0 -5 5 -7 10 -4 6 3 10 8 10 11 0 2 -4 4 -10 4 -5 0 -10
-5 -10 -11z"/>
<path d="M781 1394 c0 -11 3 -14 6 -6 3 7 2 16 -1 19 -3 4 -6 -2 -5 -13z"/>
<path d="M1225 1400 c3 -5 8 -10 11 -10 2 0 4 5 4 10 0 6 -5 10 -11 10 -5 0
-7 -4 -4 -10z"/>
<path d="M820 1388 c0 -9 5 -20 10 -23 13 -8 13 5 0 25 -8 13 -10 13 -10 -2z"/>
<path d="M620 1360 c11 -11 20 -27 20 -35 0 -13 2 -13 14 -3 7 7 11 19 8 27
-4 11 -7 12 -10 2 -3 -8 -9 -6 -19 8 -8 12 -18 21 -24 21 -5 0 0 -9 11 -20z"/>
<path d="M666 1365 c4 -8 10 -15 15 -15 4 0 6 7 3 15 -4 8 -10 15 -15 15 -4 0
-6 -7 -3 -15z"/>
<path d="M1212 1330 c0 -19 2 -27 5 -17 2 9 2 25 0 35 -3 9 -5 1 -5 -18z"/>
<path d="M851 1329 c-1 -17 5 -29 15 -33 13 -5 14 -3 6 6 -5 7 -12 22 -15 33
-4 16 -5 14 -6 -6z"/>
<path d="M690 1336 c0 -2 7 -6 15 -10 8 -3 15 -1 15 4 0 6 -7 10 -15 10 -8 0
-15 -2 -15 -4z"/>
<path d="M925 1320 c-3 -5 -1 -10 4 -10 6 0 11 5 11 10 0 6 -2 10 -4 10 -3 0
-8 -4 -11 -10z"/>
<path d="M2391 1313 c7 -10 15 -20 16 -22 4 -6 33 20 33 30 0 5 -14 9 -31 9
-28 0 -30 -2 -18 -17z"/>
<path d="M1276 1307 c-10 -8 -19 -24 -20 -38 -1 -13 -7 -23 -14 -21 -7 1 -12
-3 -12 -9 0 -5 -4 -7 -10 -4 -5 3 -10 -1 -10 -9 0 -8 -5 -18 -11 -21 -6 -4 -9
0 -7 11 2 11 -10 26 -31 41 -34 23 -67 31 -56 14 3 -5 0 -11 -7 -14 -7 -2 1
-3 17 -1 20 3 25 1 16 -5 -11 -7 -11 -9 0 -14 8 -3 -1 -4 -19 -2 -30 3 -32 2
-26 -18 5 -18 4 -20 -7 -9 -7 6 -21 12 -31 12 -23 0 -23 26 0 39 9 6 12 11 5
11 -6 0 -18 -7 -26 -15 -8 -8 -17 -11 -21 -8 -3 4 -6 -3 -6 -15 0 -19 -6 -22
-41 -22 -22 0 -38 4 -35 9 3 4 -6 6 -21 3 -17 -3 -24 -1 -19 6 4 6 -1 8 -13 5
-12 -3 -17 -11 -14 -19 3 -9 -2 -14 -15 -14 -12 0 -24 -4 -27 -10 -11 -17 -20
-11 -21 16 -2 30 -9 38 -24 29 -8 -5 -8 -11 1 -21 7 -9 8 -14 1 -14 -6 0 -12
6 -15 13 -4 9 -7 9 -18 -1 -11 -10 -11 -16 -1 -32 14 -23 15 -30 4 -30 -9 0
-44 57 -40 64 2 2 -1 8 -6 13 -5 5 -6 3 -2 -4 4 -7 2 -13 -3 -13 -6 0 -11 14
-11 31 0 17 -4 28 -10 24 -5 -3 -10 1 -10 9 0 9 -5 16 -11 16 -5 0 -7 -5 -4
-10 3 -6 -1 -17 -9 -26 -18 -18 -20 -30 -6 -39 6 -3 10 2 10 12 0 15 2 16 10
3 8 -12 10 -12 11 5 0 11 3 14 6 8 2 -7 -5 -25 -17 -40 l-21 -27 20 -8 c22 -8
28 -42 10 -54 -6 -3 -9 -20 -7 -36 3 -16 1 -31 -4 -34 -4 -3 -8 0 -8 5 0 6 -5
11 -11 11 -7 0 -9 -9 -6 -21 5 -20 3 -21 -36 -16 -23 3 -36 3 -28 0 7 -3 22
-14 32 -24 18 -18 40 -19 377 -19 299 1 354 3 340 14 -26 19 -22 27 7 16 22
-8 26 -6 31 15 3 13 3 29 -1 35 -3 5 1 13 9 16 17 6 23 69 8 78 -4 2 -6 -11
-4 -31 l4 -35 -22 22 c-12 12 -19 28 -16 36 4 10 -2 14 -22 13 -15 -1 -20 -3
-12 -5 19 -6 15 -80 -5 -88 -11 -4 -45 32 -45 49 0 14 39 3 43 -12 4 -14 5
-12 6 5 0 12 -3 22 -9 22 -5 0 -10 7 -10 16 0 8 -4 13 -9 10 -11 -7 -26 11
-36 42 -5 18 -2 25 13 29 21 5 46 49 37 64 -4 5 -2 9 4 9 5 0 11 -8 13 -17 3
-16 6 -15 16 4 11 20 10 22 -4 16 -12 -4 -15 -3 -10 5 9 16 4 15 -18 -1z
m-580 -137 c16 0 18 -18 4 -40 -8 -12 -10 -11 -10 7 0 12 -4 25 -10 28 -5 3
-9 14 -9 23 1 15 2 15 6 0 2 -10 11 -18 19 -18z m204 20 c0 -5 -2 -10 -4 -10
-3 0 -8 5 -11 10 -3 6 -1 10 4 10 6 0 11 -4 11 -10z m203 -32 c9 -26 -12 -58
-38 -58 -23 0 -25 3 -20 23 7 21 31 47 46 47 4 0 9 -6 12 -12z m-262 -19 c-16
-6 -28 -6 -35 1 -7 7 1 10 25 9 32 0 33 -1 10 -10z m-98 -28 c4 -17 2 -18 -14
-8 -13 8 -15 13 -6 19 7 4 13 8 13 8 1 0 4 -9 7 -19z m130 2 c-7 -2 -21 -2
-30 0 -10 3 -4 5 12 5 17 0 24 -2 18 -5z m467 -17 c0 -3 -4 -8 -10 -11 -5 -3
-10 -1 -10 4 0 6 5 11 10 11 6 0 10 -2 10 -4z m-632 -27 c2 -5 9 -7 15 -3 7 3
3 -2 -7 -10 -25 -20 -40 -20 -32 -1 3 9 0 15 -9 15 -8 0 -15 5 -15 11 0 12 43
1 48 -12z m87 11 c8 -13 -5 -13 -25 0 -13 8 -13 10 2 10 9 0 20 -4 23 -10z"/>
<path d="M530 1295 c-7 -8 -10 -18 -6 -22 3 -3 6 -1 6 5 0 7 5 12 10 12 14 0
12 -28 -2 -32 -7 -3 2 -5 20 -5 19 0 32 5 32 13 0 7 10 15 23 17 l22 4 -22 2
c-13 0 -23 6 -23 11 0 6 -8 10 -17 10 -14 0 -15 -2 -4 -9 8 -5 9 -11 3 -15 -6
-4 -15 1 -20 9 -8 15 -10 15 -22 0z"/>
<path d="M2474 1294 c3 -9 6 -24 6 -35 0 -17 3 -18 20 -9 24 13 26 45 4 54
-26 10 -36 7 -30 -10z"/>
<path d="M1211 1274 c0 -11 3 -14 6 -6 3 7 2 16 -1 19 -3 4 -6 -2 -5 -13z"/>
<path d="M775 1270 c3 -5 8 -10 11 -10 2 0 4 5 4 10 0 6 -5 10 -11 10 -5 0 -7
-4 -4 -10z"/>
<path d="M810 1267 c0 -8 7 -17 15 -21 8 -3 15 -3 15 0 0 3 -7 12 -15 20 -13
13 -15 13 -15 1z"/>
<path d="M2140 1270 c0 -5 7 -10 15 -10 8 0 15 -4 15 -10 0 -5 5 -10 12 -10 6
0 3 9 -7 20 -20 22 -35 26 -35 10z"/>
<path d="M935 1260 c-3 -5 -1 -10 4 -10 6 0 11 5 11 10 0 6 -2 10 -4 10 -3 0
-8 -4 -11 -10z"/>
<path d="M497 1239 c-3 -12 0 -22 9 -26 20 -8 27 2 19 26 -8 27 -21 27 -28 0z"/>
<path d="M735 1250 c3 -5 8 -10 11 -10 2 0 4 5 4 10 0 6 -5 10 -11 10 -5 0 -7
-4 -4 -10z"/>
<path d="M2115 1250 c3 -5 8 -10 11 -10 2 0 4 5 4 10 0 6 -5 10 -11 10 -5 0
-7 -4 -4 -10z"/>
<path d="M575 1230 c4 -6 11 -8 16 -5 14 9 11 15 -7 15 -8 0 -12 -5 -9 -10z"/>
<path d="M590 1181 c0 -19 4 -30 10 -26 10 6 8 40 -3 51 -4 4 -7 -7 -7 -25z"/>
<path d="M456 1134 c-5 -14 -4 -15 9 -4 17 14 19 20 6 20 -5 0 -12 -7 -15 -16z"/>
<path d="M440 1069 c0 -16 28 -41 34 -30 3 5 -1 12 -10 15 -8 3 -12 10 -9 16
3 5 1 10 -4 10 -6 0 -11 -5 -11 -11z"/>
<path d="M511 1055 c1 -19 18 -51 18 -35 0 8 -4 22 -9 30 -5 8 -9 11 -9 5z"/>
<path d="M480 1006 c7 -7 13 -7 20 0 6 6 3 10 -10 10 -13 0 -16 -4 -10 -10z"/>
<path d="M527 873 c-4 -3 -7 -11 -7 -17 0 -6 5 -5 12 2 6 6 9 14 7 17 -3 3 -9
2 -12 -2z"/>
<path d="M2502 850 c0 -14 2 -19 5 -12 2 6 2 18 0 25 -3 6 -5 1 -5 -13z"/>
<path d="M606 833 c-6 -14 -5 -15 5 -6 7 7 10 15 7 18 -3 3 -9 -2 -12 -12z"/>
<path d="M2332 830 c0 -14 2 -19 5 -12 2 6 2 18 0 25 -3 6 -5 1 -5 -13z"/>
<path d="M2372 830 c0 -14 2 -19 5 -12 2 6 2 18 0 25 -3 6 -5 1 -5 -13z"/>
<path d="M505 829 c-4 -6 -5 -12 -2 -15 2 -3 7 2 10 11 7 17 1 20 -8 4z"/>
<path d="M542 805 c0 -16 2 -22 5 -12 2 9 2 23 0 30 -3 6 -5 -1 -5 -18z"/>
<path d="M2492 800 c0 -14 2 -19 5 -12 2 6 2 18 0 25 -3 6 -5 1 -5 -13z"/>
<path d="M678 773 c7 -3 16 -2 19 1 4 3 -2 6 -13 5 -11 0 -14 -3 -6 -6z"/>
<path d="M960 766 c0 -7 -10 -26 -22 -42 l-22 -29 32 29 c31 29 42 56 22 56
-5 0 -10 -6 -10 -14z"/>
<path d="M1048 773 c6 -2 18 -2 25 0 6 3 1 5 -13 5 -14 0 -19 -2 -12 -5z"/>
<path d="M1133 773 c12 -3 16 -10 12 -21 -5 -13 -3 -14 6 -5 14 14 3 33 -19
32 -15 -1 -14 -2 1 -6z"/>
<path d="M1285 770 c3 -5 12 -7 20 -3 21 7 19 13 -6 13 -11 0 -18 -4 -14 -10z"/>
<path d="M1388 773 c7 -3 16 -2 19 1 4 3 -2 6 -13 5 -11 0 -14 -3 -6 -6z"/>
<path d="M1488 773 c7 -3 16 -2 19 1 4 3 -2 6 -13 5 -11 0 -14 -3 -6 -6z"/>
<path d="M1812 760 c0 -14 2 -19 5 -12 2 6 2 18 0 25 -3 6 -5 1 -5 -13z"/>
<path d="M2128 755 c-3 -14 -1 -25 3 -25 5 0 9 11 9 25 0 14 -2 25 -4 25 -2 0
-6 -11 -8 -25z"/>
<path d="M2263 773 c12 -3 16 -10 12 -21 -5 -13 -3 -14 6 -5 14 14 3 33 -19
32 -15 -1 -14 -2 1 -6z"/>
<path d="M2321 764 c0 -11 3 -14 6 -6 3 7 2 16 -1 19 -3 4 -6 -2 -5 -13z"/>
<path d="M2362 760 c0 -14 2 -19 5 -12 2 6 2 18 0 25 -3 6 -5 1 -5 -13z"/>
<path d="M2682 760 c0 -14 2 -19 5 -12 2 6 2 18 0 25 -3 6 -5 1 -5 -13z"/>
<path d="M2717 746 c-3 -22 -5 -41 -4 -42 1 -2 10 11 19 27 10 17 14 27 9 24
-5 -3 -11 3 -13 12 -2 10 -7 0 -11 -21z"/>
<path d="M2781 764 c0 -11 3 -14 6 -6 3 7 2 16 -1 19 -3 4 -6 -2 -5 -13z"/>
<path d="M2879 771 c9 -6 10 -14 3 -27 -5 -11 -6 -28 -1 -39 7 -18 8 -18 8 5
1 14 4 35 7 48 5 17 2 22 -12 22 -15 0 -16 -2 -5 -9z"/>
<path d="M1011 743 c0 -25 1 -26 9 -8 12 27 12 35 0 35 -5 0 -10 -12 -9 -27z"/>
<path d="M1096 754 c-8 -21 -8 -34 2 -34 4 0 8 11 8 25 2 29 -1 32 -10 9z"/>
<path d="M1446 739 c-8 -42 0 -50 9 -9 4 17 5 34 2 36 -2 3 -7 -10 -11 -27z"/>
<path d="M1668 739 c-10 -17 -13 -27 -8 -24 6 3 11 -2 11 -12 1 -10 5 0 9 22
4 22 7 41 6 42 -1 1 -9 -12 -18 -28z"/>
<path d="M1772 745 c0 -16 2 -22 5 -12 2 9 2 23 0 30 -3 6 -5 -1 -5 -18z"/>
<path d="M1866 753 c-4 -9 -2 -21 4 -27 7 -7 10 -2 10 17 0 31 -5 34 -14 10z"/>
<path d="M1916 755 c-3 -9 -6 -26 -5 -38 1 -16 4 -12 10 12 10 34 6 55 -5 26z"/>
<path d="M1612 730 c0 -19 2 -27 5 -17 2 9 2 25 0 35 -3 9 -5 1 -5 -18z"/>
<path d="M2408 753 c6 -2 18 -2 25 0 6 3 1 5 -13 5 -14 0 -19 -2 -12 -5z"/>
<path d="M2487 754 c-4 -4 -7 -19 -6 -33 l0 -26 10 24 c10 26 8 47 -4 35z"/>
<path d="M901 734 c0 -11 3 -14 6 -6 3 7 2 16 -1 19 -3 4 -6 -2 -5 -13z"/>
<path d="M2220 735 c0 -8 4 -15 10 -15 5 0 7 7 4 15 -4 8 -8 15 -10 15 -2 0
-4 -7 -4 -15z"/>
<path d="M550 719 c0 -11 4 -18 10 -14 5 3 7 12 3 20 -7 21 -13 19 -13 -6z"/>
<path d="M1711 724 c0 -11 3 -14 6 -6 3 7 2 16 -1 19 -3 4 -6 -2 -5 -13z"/>
<path d="M2782 720 c0 -14 2 -19 5 -12 2 6 2 18 0 25 -3 6 -5 1 -5 -13z"/>
<path d="M2821 724 c0 -11 3 -14 6 -6 3 7 2 16 -1 19 -3 4 -6 -2 -5 -13z"/>
<path d="M451 714 c0 -11 3 -14 6 -6 3 7 2 16 -1 19 -3 4 -6 -2 -5 -13z"/>
<path d="M811 714 c0 -11 3 -14 6 -6 3 7 2 16 -1 19 -3 4 -6 -2 -5 -13z"/>
<path d="M1281 714 c0 -11 3 -14 6 -6 3 7 2 16 -1 19 -3 4 -6 -2 -5 -13z"/>
<path d="M2671 714 c0 -11 3 -14 6 -6 3 7 2 16 -1 19 -3 4 -6 -2 -5 -13z"/>
<path d="M840 700 c-9 -6 -10 -10 -3 -10 6 0 15 5 18 10 8 12 4 12 -15 0z"/>
<path d="M2871 673 c-1 -6 -4 -20 -7 -30 -5 -17 -5 -17 6 0 6 10 9 23 6 30 -3
9 -5 9 -5 0z"/>
<path d="M3138 418 c-2 -29 -4 -54 -3 -55 1 -2 23 11 49 29 l48 31 -30 13
c-16 6 -33 17 -36 23 -15 23 -24 9 -28 -41z"/>
<path d="M3406 405 c-15 -15 -38 -32 -52 -40 l-25 -13 31 -15 c36 -18 62 -13
53 10 -4 10 -2 14 4 10 10 -6 28 62 19 71 -2 2 -16 -9 -30 -23z"/>
<path d="M3188 367 c-32 -26 -36 -52 -11 -61 11 -5 26 4 45 24 32 36 34 45 12
54 -19 7 -14 9 -46 -17z"/>
<path d="M3310 276 c0 -8 -3 -21 -6 -30 -3 -9 -1 -16 6 -16 6 0 9 4 6 9 -9 15
22 21 33 7 12 -14 71 -20 71 -6 0 9 -80 50 -98 50 -7 0 -12 -6 -12 -14z"/>
<path d="M3293 130 c-6 -14 -7 -29 -2 -34 13 -15 21 -1 17 31 l-4 28 -11 -25z"/>
<path d="M3221 127 c-18 -18 -13 -45 10 -52 27 -9 40 4 33 32 -7 26 -27 36
-43 20z"/>
<path d="M3418 112 c-22 -4 -35 -49 -19 -65 13 -13 38 -2 55 25 12 20 -11 45
-36 40z"/>
</g>
</svg>
